HIERARCHY
ROOT Hips
{
	OFFSET 0.000000 0.000000 0.000000
	CHANNELS 6 Xposition Yposition Zposition Xrotation Yrotation Zrotation
	JOINT LeftUpLeg_virtual
	{
		OFFSET 0.000000 0.000000 0.000000
		CHANNELS 3 Xrotation Yrotation Zrotation
		JOINT LeftUpLeg
		{
			OFFSET 13.026900 -6.336304 -1.092800
			CHANNELS 3 Xrotation Yrotation Zrotation
			JOINT LeftLeg
			{
				OFFSET 0.524474 -46.096886 9.782700
				CHANNELS 3 Xrotation Yrotation Zrotation
				JOINT LeftFoot
				{
					OFFSET -0.524474 -53.427422 -12.948200
					CHANNELS 3 Xrotation Yrotation Zrotation
					JOINT LeftToeBase
					{
						OFFSET 0.192200 -14.009700 16.364100
						CHANNELS 3 Xrotation Yrotation Zrotation
						JOINT LeftToe_End
						{
							OFFSET -1.784700 -0.561700 9.474800
							CHANNELS 3 Xrotation Yrotation Zrotation
							End Site
							{
								OFFSET 0 0 0
							}
						}
					}
				}
			}
		}
	}
	JOINT RightUpLeg_virtual
	{
		OFFSET 0.000000 0.000000 0.000000
		CHANNELS 3 Xrotation Yrotation Zrotation
		JOINT RightUpLeg
		{
			OFFSET -12.883000 -6.336304 -1.092800
			CHANNELS 3 Xrotation Yrotation Zrotation
			JOINT RightLeg
			{
				OFFSET -0.524587 -46.096825 9.782800
				CHANNELS 3 Xrotation Yrotation Zrotation
				JOINT RightFoot
				{
					OFFSET 0.524587 -53.427383 -12.948300
					CHANNELS 3 Xrotation Yrotation Zrotation
					JOINT RightToeBase
					{
						OFFSET -0.192200 -14.009700 16.364100
						CHANNELS 3 Xrotation Yrotation Zrotation
						JOINT RightToe_End
						{
							OFFSET 1.784700 -0.561700 9.474800
							CHANNELS 3 Xrotation Yrotation Zrotation
							End Site
							{
								OFFSET 0 0 0
							}
						}
					}
				}
			}
		}
	}
	JOINT Spine_virtual
	{
		OFFSET 0.000000 0.000000 0.000000
		CHANNELS 3 Xrotation Yrotation Zrotation
		JOINT Spine
		{
			OFFSET 0.072000 7.257294 -0.789700
			CHANNELS 3 Xrotation Yrotation Zrotation
			JOINT Spine1
			{
				OFFSET 0.000000 12.508769 -0.658067
				CHANNELS 3 Xrotation Yrotation Zrotation
				JOINT Spine1_split
				{
					OFFSET 0.000000 12.508769 -0.658067
					CHANNELS 3 Xrotation Yrotation Zrotation
					JOINT Spine2
					{
						OFFSET 0.000000 12.508769 -0.658067
						CHANNELS 3 Xrotation Yrotation Zrotation
						JOINT Neck_virtual
						{
							OFFSET 0.000000 0.000000 0.000000
							CHANNELS 3 Xrotation Yrotation Zrotation
							JOINT Neck
							{
								OFFSET 0.000000 14.033295 7.520400
								CHANNELS 3 Xrotation Yrotation Zrotation
								JOINT Head
								{
									OFFSET 0.000000 8.198502 5.703100
									CHANNELS 3 Xrotation Yrotation Zrotation
									JOINT HeadTop_End
									{
										OFFSET 0.000000 17.760803 13.332701
										CHANNELS 3 Xrotation Yrotation Zrotation
										End Site
										{
											OFFSET 0 0 0
										}
									}
								}
							}
						}
						JOINT LeftShoulder_virtual
						{
							OFFSET 0.000000 0.000000 0.000000
							CHANNELS 3 Xrotation Yrotation Zrotation
							JOINT LeftShoulder
							{
								OFFSET 6.292450 5.785301 -0.669000
								CHANNELS 3 Xrotation Yrotation Zrotation
								JOINT LeftShoulder_split
								{
									OFFSET 6.292450 5.785301 -0.669000
									CHANNELS 3 Xrotation Yrotation Zrotation
									JOINT LeftArm
									{
										OFFSET 13.907140 -6.093903 1.965100
										CHANNELS 3 Xrotation Yrotation Zrotation
										JOINT LeftForeArm
										{
											OFFSET 34.140198 0.000000 0.000000
											CHANNELS 3 Xrotation Yrotation Zrotation
											JOINT LeftHand
											{
												OFFSET 40.960209 0.000000 0.000000
												CHANNELS 3 Xrotation Yrotation Zrotation
												End Site
												{
													OFFSET 0 0 0
												}
											}
										}
									}
								}
							}
						}
						JOINT RightShoulder_virtual
						{
							OFFSET 0.000000 0.000000 0.000000
							CHANNELS 3 Xrotation Yrotation Zrotation
							JOINT RightShoulder
							{
								OFFSET -6.292450 5.785301 -0.669000
								CHANNELS 3 Xrotation Yrotation Zrotation
								JOINT RightShoulder_split
								{
									OFFSET -6.292450 5.785301 -0.669000
									CHANNELS 3 Xrotation Yrotation Zrotation
									JOINT RightArm
									{
										OFFSET -13.907140 -6.093903 1.965100
										CHANNELS 3 Xrotation Yrotation Zrotation
										JOINT RightForeArm
										{
											OFFSET -34.140198 0.000000 0.000000
											CHANNELS 3 Xrotation Yrotation Zrotation
											JOINT RightHand
											{
												OFFSET -40.960209 0.000000 0.000000
												CHANNELS 3 Xrotation Yrotation Zrotation
												End Site
												{
													OFFSET 0 0 0
												}
											}
										}
									}
								}
							}
						}
					}
				}
			}
		}
	}
}
MOTION
Frames: 11
Frame Time: 0.03333333
-0.123231 127.247147 -1.259258 0.000000 0.000000 0.000000 -87.494532 -6.934619 -1.321750 3.275412 23.826207 12.648758 -4.715234 0.324529 4.134244 16.711608 27.668461 -19.932966 -3.693640 -0.304365 0.602412 0.000000 0.000000 0.000000 -89.878029 -3.372917 0.916842 1.522368 -24.396452 -16.082539 -2.961732 -2.311672 -4.812582 28.985694 -30.460171 29.600804 -10.578621 0.585322 -1.231750 0.000000 0.000000 0.000000 -87.580053 -7.518806 -3.177225 0.755485 -0.429562 0.175829 -1.410090 0.321714 -0.204529 0.711292 0.927133 -0.326605 0.000000 0.000000 0.000000 -1.530473 0.358608 -0.244117 -6.231813 4.042097 -8.522234 5.577645 8.686433 -13.037294 0.000000 0.000000 0.000000 -0.455280 0.383499 -0.106527 0.460401 -5.950074 -0.892920 -0.552112 1.935917 -2.830561 44.352714 -42.191117 -32.453862 5.202134 -86.385617 4.590110 0.000000 0.000000 0.000000 -0.237827 0.740973 -0.423090 0.371469 0.471196 2.637963 7.604541 8.028777 -0.928299 -4.743016 1.852649 81.066265 -179.259408 54.832246 -179.826505 0.000000 0.000000 0.000000 
-0.109046 127.255417 -1.265736 0.000000 0.000000 0.000000 -87.515740 -6.938837 -1.319640 3.293221 23.831462 12.631627 -4.709801 0.298991 4.130254 16.734100 27.654343 -19.940386 -3.712347 -0.306343 0.597450 0.000000 0.000000 0.000000 -89.890952 -3.365612 0.926432 1.513462 -24.400277 -16.089511 -2.956493 -2.325707 -4.820101 28.997708 -30.480296 29.604710 -10.519495 0.586506 -1.240034 0.000000 0.000000 0.000000 -87.605980 -7.523617 -3.189181 0.767857 -0.430768 0.184546 -1.412970 0.325270 -0.202828 0.716672 0.919848 -0.315269 0.000000 0.000000 0.000000 -1.546548 0.366451 -0.245662 -6.210404 4.097575 -8.527940 6.157608 8.839256 -13.404052 0.000000 0.000000 0.000000 -0.445945 0.381633 -0.103488 0.450954 -5.966143 -0.939461 -0.551756 1.943420 -2.740619 44.326234 -42.193866 -32.522984 5.181814 -86.360673 4.573974 0.000000 0.000000 0.000000 -0.231997 0.746532 -0.423712 0.371101 0.486705 2.661484 7.618694 8.046555 -0.928228 -4.711887 1.833896 80.965445 -179.259298 54.769846 -179.811943 0.000000 0.000000 0.000000 
-0.095965 127.260590 -1.271435 0.000000 0.000000 0.000000 -87.538225 -6.939065 -1.317392 3.304917 23.836899 12.616937 -4.699426 0.271096 4.126176 16.752776 27.638659 -19.948015 -3.729218 -0.308564 0.591696 0.000000 0.000000 0.000000 -89.904762 -3.358620 0.933968 1.502854 -24.401346 -16.092986 -2.949373 -2.338933 -4.828061 29.011802 -30.500032 29.608119 -10.462810 0.587570 -1.247359 0.000000 0.000000 0.000000 -87.632174 -7.530647 -3.200493 0.777920 -0.431017 0.196692 -1.418194 0.331886 -0.202085 0.722853 0.925757 -0.292559 0.000000 0.000000 0.000000 -1.569193 0.375473 -0.245827 -6.186296 4.178996 -8.546084 6.922111 9.030043 -13.904823 0.000000 0.000000 0.000000 -0.438350 0.382245 -0.097465 0.436820 -5.966034 -0.992129 -0.547150 1.943125 -2.658625 44.310490 -42.206041 -32.547754 5.056145 -86.338577 4.452944 0.000000 0.000000 0.000000 -0.228298 0.752117 -0.427444 0.368504 0.462345 2.672234 7.651610 8.083151 -0.923958 -4.678739 1.813494 80.873080 -179.250692 54.694997 -179.811273 0.000000 0.000000 0.000000 
-0.085265 127.263718 -1.278179 0.000000 0.000000 0.000000 -87.558702 -6.935710 -1.316105 3.310055 23.841665 12.605285 -4.686356 0.241469 4.122774 16.766953 27.622675 -19.956802 -3.744716 -0.310917 0.585568 0.000000 0.000000 0.000000 -89.916012 -3.351663 0.939559 1.492021 -24.400672 -16.092937 -2.945217 -2.350832 -4.835712 29.028813 -30.515660 29.612791 -10.410970 0.588431 -1.253916 0.000000 0.000000 0.000000 -87.655888 -7.540185 -3.212143 0.784125 -0.431843 0.211299 -1.424307 0.338485 -0.201913 0.722721 0.936778 -0.270669 0.000000 0.000000 0.000000 -1.595109 0.383993 -0.244258 -6.178849 4.276057 -8.565754 7.763024 9.220357 -14.472751 0.000000 0.000000 0.000000 -0.434033 0.384150 -0.089072 0.420934 -5.948827 -1.044984 -0.539476 1.940228 -2.597056 44.311296 -42.227300 -32.536368 4.823410 -86.315812 4.224691 0.000000 0.000000 0.000000 -0.227550 0.755786 -0.433240 0.364787 0.401233 2.667852 7.696742 8.122750 -0.915759 -4.651792 1.794907 80.810734 -179.234682 54.630660 -179.824374 0.000000 0.000000 0.000000 
-0.077493 127.266739 -1.283455 0.000000 0.000000 0.000000 -87.576337 -6.929583 -1.316236 3.308865 23.844349 12.597583 -4.672465 0.212727 4.120803 16.779275 27.606684 -19.968726 -3.760791 -0.313280 0.579780 0.000000 0.000000 0.000000 -89.923204 -3.343663 0.942617 1.485482 -24.399427 -16.087612 -2.950158 -2.362622 -4.842833 29.047623 -30.526591 29.617859 -10.364721 0.589121 -1.260037 0.000000 0.000000 0.000000 -87.673722 -7.552626 -3.225764 0.785935 -0.433116 0.226362 -1.429713 0.342740 -0.201690 0.723442 0.959984 -0.250764 0.000000 0.000000 0.000000 -1.622890 0.389898 -0.240039 -6.205987 4.371275 -8.579531 8.573522 9.373036 -15.024253 0.000000 0.000000 0.000000 -0.434074 0.386202 -0.078984 0.406356 -5.917355 -1.090932 -0.530009 1.930564 -2.559610 44.331527 -42.257370 -32.501889 4.499894 -86.283061 3.906467 0.000000 0.000000 0.000000 -0.229833 0.756650 -0.439671 0.360359 0.310954 2.651071 7.742824 8.158126 -0.898391 -4.635087 1.789052 80.785073 -179.212348 54.594016 -179.849140 0.000000 0.000000 0.000000 
-0.072566 127.270081 -1.286770 0.000000 0.000000 0.000000 -87.590250 -6.921245 -1.317127 3.302355 23.845683 12.593347 -4.659376 0.188023 4.120307 16.792879 27.591796 -19.983826 -3.778466 -0.315586 0.574770 0.000000 0.000000 0.000000 -89.926257 -3.334120 0.944881 1.485211 -24.398500 -16.077116 -2.963952 -2.375344 -4.848927 29.064907 -30.534183 29.620823 -10.323005 0.589792 -1.265998 0.000000 0.000000 0.000000 -87.685566 -7.566102 -3.239305 0.787566 -0.435223 0.239915 -1.432870 0.343701 -0.200953 0.722587 0.995503 -0.237486 0.000000 0.000000 0.000000 -1.649215 0.393122 -0.233925 -6.269773 4.451715 -8.580639 9.248403 9.462086 -15.487041 0.000000 0.000000 0.000000 -0.439307 0.387970 -0.067803 0.395583 -5.874572 -1.128097 -0.510790 1.909722 -2.546867 44.369332 -42.293037 -32.457834 4.133627 -86.230592 3.545417 0.000000 0.000000 0.000000 -0.234609 0.755376 -0.445367 0.357317 0.206023 2.626048 7.781238 8.183741 -0.871501 -4.631509 1.800487 80.794308 -179.185901 54.578993 -179.881310 0.000000 0.000000 0.000000 
-0.071271 127.273422 -1.286610 0.000000 0.000000 0.000000 -87.600461 -6.914651 -1.319592 3.291753 23.847877 12.592084 -4.646318 0.171845 4.121539 16.807931 27.579995 -19.998826 -3.796312 -0.317717 0.570860 0.000000 0.000000 0.000000 -89.925390 -3.324120 0.947020 1.490847 -24.397212 -16.062325 -2.983030 -2.390246 -4.853903 29.077034 -30.540843 29.618128 -10.283095 0.590604 -1.271783 0.000000 0.000000 0.000000 -87.692198 -7.580142 -3.251033 0.791062 -0.437368 0.249609 -1.433868 0.341710 -0.198972 0.726161 1.032344 -0.232071 0.000000 0.000000 0.000000 -1.672885 0.394492 -0.226692 -6.361356 4.507335 -8.571126 9.719487 9.474199 -15.804595 0.000000 0.000000 0.000000 -0.449390 0.390333 -0.056455 0.389285 -5.825446 -1.154453 -0.481948 1.887413 -2.554855 44.420508 -42.328079 -32.409634 3.792899 -86.159162 3.209520 0.000000 0.000000 0.000000 -0.241007 0.753149 -0.450111 0.355835 0.099622 2.599675 7.813207 8.198739 -0.842444 -4.641135 1.829947 80.832523 -179.158266 54.578822 -179.915652 0.000000 0.000000 0.000000 
-0.073396 127.275513 -1.287460 0.000000 0.000000 0.000000 -87.605065 -6.910778 -1.322407 3.279275 23.852120 12.591899 -4.634288 0.166905 4.124081 16.823618 27.572688 -20.011983 -3.812306 -0.319411 0.568297 0.000000 0.000000 0.000000 -89.922787 -3.317175 0.947587 1.501148 -24.393023 -16.044832 -3.001732 -2.407775 -4.857642 29.082556 -30.547659 29.609393 -10.245493 0.591614 -1.277175 0.000000 0.000000 0.000000 -87.694015 -7.593111 -3.258515 0.798444 -0.437756 0.253937 -1.431928 0.339349 -0.196275 0.724502 1.071566 -0.233033 0.000000 0.000000 0.000000 -1.690517 0.396234 -0.220241 -6.458183 4.534788 -8.557890 9.946101 9.415489 -15.948869 0.000000 0.000000 0.000000 -0.464156 0.395051 -0.045742 0.387166 -5.773893 -1.169182 -0.457475 1.858974 -2.567891 44.475600 -42.356233 -32.356853 3.535933 -86.081933 2.956537 0.000000 0.000000 0.000000 -0.248119 0.752136 -0.454435 0.356400 0.007126 2.576432 7.838591 8.213722 -0.816258 -4.660376 1.875065 80.887758 -179.131820 54.582654 -179.946948 0.000000 0.000000 0.000000 
-0.079903 127.275185 -1.290531 0.000000 0.000000 0.000000 -87.603467 -6.908447 -1.322340 3.266770 23.858826 12.592074 -4.624078 0.174268 4.127290 16.837625 27.570482 -20.022513 -3.825955 -0.320425 0.567517 0.000000 0.000000 0.000000 -89.917227 -3.314181 0.948767 1.513397 -24.382223 -16.027821 -3.016066 -2.426715 -4.860237 29.082269 -30.552877 29.598191 -10.214838 0.592740 -1.281918 0.000000 0.000000 0.000000 -87.692696 -7.602838 -3.258231 0.809222 -0.435917 0.252532 -1.427336 0.339079 -0.193425 0.717376 1.101939 -0.242899 0.000000 0.000000 0.000000 -1.700997 0.399958 -0.215931 -6.534834 4.538854 -8.550488 9.926360 9.301066 -15.922214 0.000000 0.000000 0.000000 -0.482173 0.403323 -0.037284 0.387812 -5.723929 -1.176143 -0.436959 1.832921 -2.591198 44.531792 -42.371061 -32.297584 3.400157 -86.017244 2.822845 0.000000 0.000000 0.000000 -0.254651 0.753757 -0.459431 0.359444 -0.060148 2.561440 7.859449 8.226320 -0.795083 -4.689107 1.926135 80.951812 -179.108269 54.585321 -179.972261 0.000000 0.000000 0.000000 
-0.089625 127.271057 -1.297222 0.000000 0.000000 0.000000 -87.595332 -6.906946 -1.318219 3.256068 23.866158 12.592360 -4.617878 0.193375 4.130408 16.851677 27.571910 -20.033023 -3.838246 -0.320647 0.568947 0.000000 0.000000 0.000000 -89.910015 -3.315003 0.950683 1.527535 -24.361786 -16.012316 -3.027630 -2.446045 -4.862602 29.077751 -30.555193 29.587625 -10.195284 0.593780 -1.285649 0.000000 0.000000 0.000000 -87.687314 -7.610005 -3.250398 0.820252 -0.431231 0.246280 -1.420671 0.341919 -0.192059 0.704652 1.123188 -0.255120 0.000000 0.000000 0.000000 -1.703512 0.406059 -0.214722 -6.571185 4.524400 -8.559161 9.687537 9.151763 -15.743620 0.000000 0.000000 0.000000 -0.500239 0.415389 -0.032671 0.389951 -5.680463 -1.177881 -0.427575 1.807216 -2.615815 44.585245 -42.365816 -32.231106 3.371878 -85.983168 2.794788 0.000000 0.000000 0.000000 -0.259822 0.758722 -0.465538 0.364438 -0.098009 2.554621 7.872228 8.233799 -0.774131 -4.726122 1.973012 81.013536 -179.089227 54.596735 -179.990538 0.000000 0.000000 0.000000 
-0.101929 127.263351 -1.307949 0.000000 0.000000 0.000000 -87.582252 -6.903171 -1.307550 3.248621 23.870804 12.593731 -4.616729 0.222981 4.132212 16.868967 27.575094 -20.046108 -3.849108 -0.320075 0.572694 0.000000 0.000000 0.000000 -89.900835 -3.317905 0.955704 1.544077 -24.330438 -15.998801 -3.039679 -2.466122 -4.865583 29.069999 -30.555432 29.579026 -10.188445 0.594492 -1.287972 0.000000 0.000000 0.000000 -87.677964 -7.612901 -3.234460 0.828725 -0.424624 0.237207 -1.410769 0.348548 -0.193158 0.687892 1.134390 -0.274213 0.000000 0.000000 0.000000 -1.697710 0.413923 -0.216882 -6.555605 4.500648 -8.586805 9.271639 8.991191 -15.448279 0.000000 0.000000 0.000000 -0.515485 0.430003 -0.032838 0.392628 -5.648254 -1.179012 -0.417564 1.775914 -2.647347 44.638117 -42.340107 -32.155496 3.434953 -85.982875 2.854324 0.000000 0.000000 0.000000 -0.262489 0.766805 -0.472511 0.370856 -0.105438 2.553240 7.873725 8.228583 -0.753927 -4.770349 2.002633 81.063574 -179.076003 54.615152 179.997560 0.000000 0.000000 0.000000 
